<?xml version="1.0" encoding="UTF-8"?>
<svg id="Layer_1" data-name="Layer 1" xmlns="http://www.w3.org/2000/svg" viewBox="0 0 201.63 213.74">
  <defs>
    <style>
      .cls-1 {
        fill: #ed1c24;
      }

      .cls-2, .cls-3 {
        fill: #00a651;
      }

      .cls-3 {
        stroke: #00a651;
        stroke-miterlimit: 10;
      }
    </style>
  </defs>
  <path class="cls-2" d="M183.06,123.74h0c-1.46,0-2.65-1.27-2.65-2.81V2.81c0-1.55,1.19-2.81,2.65-2.81h0c1.46,0,2.65,1.27,2.65,2.81V120.93c0,1.55-1.19,2.81-2.65,2.81Z"/>
  <path class="cls-2" d="M71.63,163.11h0c-1.46,0-2.65-1.27-2.65-2.81V30.94c0-1.55,1.19-2.81,2.65-2.81h0c1.46,0,2.65,1.27,2.65,2.81V160.3c0,1.55-1.19,2.81-2.65,2.81Z"/>
  <path class="cls-1" d="M130,191.24h0c-1.46,0-2.65-1.27-2.65-2.81V92.81c0-1.55,1.19-2.81,2.65-2.81h0c1.46,0,2.65,1.27,2.65,2.81v95.62c0,1.55-1.19,2.81-2.65,2.81Z"/>
  <path class="cls-1" d="M18.57,213.74h0c-1.46,0-2.65-1.27-2.65-2.81V104.06c0-1.55,1.19-2.81,2.65-2.81h0c1.46,0,2.65,1.27,2.65,2.81v106.87c0,1.55-1.19,2.81-2.65,2.81Z"/>
  <g>
    <rect class="cls-2" x="167.14" y="19.69" width="31.84" height="84.37"/>
    <path class="cls-2" d="M196.33,22.5V101.24h-26.53V22.5h26.53m5.31-5.62h-37.14V106.87h37.14V16.87h0Z"/>
  </g>
  <g>
    <rect class="cls-3" x="55.71" y="47.81" width="31.84" height="95.62"/>
    <path class="cls-3" d="M84.9,50.62v89.99h-26.53V50.62h26.53m5.31-5.62H53.06v101.24h37.14V45h0Z"/>
  </g>
  <g>
    <rect class="cls-1" x="114.08" y="109.68" width="31.84" height="61.87"/>
    <path class="cls-1" d="M143.26,112.49v56.25h-26.53v-56.25h26.53m5.31-5.62h-37.14v67.5h37.14V106.87h0Z"/>
  </g>
  <g>
    <rect class="cls-1" x="2.65" y="120.93" width="31.84" height="73.12"/>
    <path class="cls-1" d="M31.84,123.74v67.5H5.31V123.74H31.84m5.31-5.62H0v78.75H37.14V118.12h0Z"/>
  </g>
</svg>