<?xml version="1.0" encoding="UTF-8"?>
<svg id="Layer_1" data-name="Layer 1" xmlns="http://www.w3.org/2000/svg" viewBox="0 0 213.95 205.8">
  <defs>
    <style>
      .cls-1, .cls-2, .cls-3 {
        fill: #231f20;
      }

      .cls-4 {
        fill: #fff;
      }

      .cls-4, .cls-2, .cls-3 {
        stroke: #231f20;
        stroke-miterlimit: 10;
      }

      .cls-3 {
        stroke-width: 3px;
      }
    </style>
  </defs>
  <path class="cls-2" d="M73.13,155.18h0c-1.46,0-2.65-1.27-2.65-2.81V23c0-1.55,1.19-2.81,2.65-2.81h0c1.46,0,2.65,1.27,2.65,2.81V152.37c0,1.55-1.19,2.81-2.65,2.81Z"/>
  <path class="cls-1" d="M20.07,205.8h0c-1.46,0-2.65-1.27-2.65-2.81V96.12c0-1.55,1.19-2.81,2.65-2.81h0c1.46,0,2.65,1.27,2.65,2.81v106.87c0,1.55-1.19,2.81-2.65,2.81Z"/>
  <g>
    <rect class="cls-4" x="57.21" y="39.87" width="31.84" height="95.62"/>
    <path class="cls-4" d="M91.7,37.06H54.56v101.24h37.14V37.06h0Z"/>
  </g>
  <path class="cls-3" d="M38.64,110.18H1.5v78.75H38.64V110.18h0Z"/>
  <path class="cls-1" d="M131.5,192.18h0c-1.46,0-2.65-1.27-2.65-2.81V82.49c0-1.55,1.19-2.81,2.65-2.81h0c1.46,0,2.65,1.27,2.65,2.81v106.87c0,1.55-1.19,2.81-2.65,2.81Z"/>
  <path class="cls-3" d="M150.07,96.56h-37.14v78.75h37.14V96.56h0Z"/>
  <path class="cls-2" d="M194.88,135.49h0c-1.46,0-2.65-1.27-2.65-2.81V3.31c0-1.55,1.19-2.81,2.65-2.81h0c1.46,0,2.65,1.27,2.65,2.81V132.68c0,1.55-1.19,2.81-2.65,2.81Z"/>
  <g>
    <rect class="cls-4" x="178.97" y="20.19" width="31.84" height="95.62"/>
    <path class="cls-4" d="M213.45,17.37h-37.14V118.62h37.14V17.37h0Z"/>
  </g>
</svg>