<?xml version="1.0" encoding="UTF-8"?>
<svg id="Layer_1" data-name="Layer 1" xmlns="http://www.w3.org/2000/svg" viewBox="0 0 268.32 255.16">
  <defs>
    <style>
      .cls-1 {
        fill: #010101;
      }
    </style>
  </defs>
  <path class="cls-1" d="M138.91,0C106.39,.07,73.72,9.98,48.11,29.43-13.09,75.92-15.31,158.43,38.07,210.17c30.8,29.84,73.86,44.76,117.27,44.99h0c.94,.01,1.85-.3,2.53-.87,.67-.57,1.05-1.35,1.05-2.16s-.38-1.59-1.05-2.16c-.67-.57-1.58-.89-2.53-.88-41.57-.22-82.57-14.42-111.97-42.91C-7.47,156.91-5.4,78.15,52.75,33.98,104.5-5.33,187.03-3.55,232.9,42.05c40.29,40.07,38.16,103.61-9.38,138.59-41.08,30.23-105.9,28.39-141.1-8.07-29.78-30.84-27.67-79.13,9.27-104.89,30.37-21.18,77.55-19.43,102.04,7.88,19.35,21.57,17.29,54.8-9.05,71.29-19.56,12.24-49.43,10.56-63.1-7.59-4.56-6.06-6.41-13.83-5.08-20.88,1.33-7.06,5.62-13.3,13.46-16.8,4.1-1.83,10.01-2.39,14.78-1.33s8.25,3.33,9.38,7.69c.15,.58-.45,3.77-1.65,5.22-.6,.73-1.19,.95-1.21,.95-.02,0,.02,.21-.88-.57h0c-1.4-1.2-3.67-1.2-5.08,0-1.4,1.21-1.4,3.16,0,4.37,2.02,1.75,4.87,2.64,7.39,2.18,2.52-.46,4.28-1.92,5.52-3.42,2.47-2.99,3.77-6.47,2.87-9.97-1.72-6.7-7.93-10.86-14.56-12.34-6.63-1.48-13.9-.71-19.75,1.9-9.96,4.44-15.59,12.47-17.21,21.07-1.63,8.61,.49,17.84,6.07,25.25,16.09,21.37,50.67,23.34,73.25,9.21,29.83-18.67,32.12-55.8,10.48-79.93-27.08-30.18-78.89-32.15-112.19-8.92-40.18,28.03-42.46,80.18-10.26,113.53,37.84,39.19,107.16,41.18,151.13,8.83,50.66-37.28,52.93-104.68,10.15-147.23C213.93,13.93,180.04,1.42,145.42,.1c-2.16-.08-4.34-.1-6.51-.1h0Z"/>
</svg>